# xmcd
#
# Track frame offsets:
#	183
#	15308
#	29095
#	41445
#	57020
#	70520
#	84083
#	99970
#	117983
#	133870
#	149945
#	164045
#	178033
#	191908
#	207920
#	220658
#
# Disc length: 3106
#
# Revision: 7
# Processed by: cddbd v1.5.2PL0 Copyright (c) Steve Scherf et al.
# Submitted via: Broken Cross Disk Manager 3.94.2201
#
DISCID=e60c2010
DTITLE=Various Artist - Going West With The Best
DYEAR=1989
DGENRE=Country
TTITLE0=Jeff Turner - Travellin' Makin' Music
TTITLE1=Country Green - No More Sad Songs
TTITLE2=Tom Russel Band - The Definition Of A Fool
TTITLE3=Claudia and County Line - Music (To Make You Sing)
TTITLE4=George Hug - Wehre We Live
TTITLE5=Jimmy Lawton - Six Days On The Road
TTITLE6=Stompin' Chief
TTITLE7=Andy Burry and The Apaches - Smoke Along The Track
TTITLE8=Doris Ackermann - A Fire Still Burns
TTITLE9=John Brack with Bobby Bare - We Love The Same Girl
TTITLE10=The Sunday Skifflers - The Man With The Plastic Bag
TTITLE11=Katy Moffat - (If You) Can Stand The Heat
TTITLE12=Flophouse String Band - 100 Pfund In Spitze
TTITLE13=Daniela Muehleis and Band - Far Away
TTITLE14=Country Ramblers - Picking The Line
TTITLE15=John Brack and Jeff Turner - I Saw The Light
EXTD=ID3G: 2
EXTT0=
EXTT1=
EXTT2=
EXTT3=
EXTT4=
EXTT5=
EXTT6=
EXTT7=
EXTT8=
EXTT9=
EXTT10=
EXTT11=
EXTT12=
EXTT13=
EXTT14=
EXTT15=
PLAYORDER=
